<svg width="100" height="100" viewBox="0 0 100 100" fill="none" xmlns="http://www.w3.org/2000/svg">
<g clip-path="url(#clip0)">
<path d="M55.5243 50.0011L98.8557 6.66957C100.381 5.14398 100.381 2.67055 98.8557 1.14516C97.3301 -0.380224 94.8567 -0.380419 93.3313 1.14516L49.9997 44.4767L6.66835 1.14516C5.14276 -0.380419 2.66933 -0.380419 1.14394 1.14516C-0.381445 2.67075 -0.38164 5.14418 1.14394 6.66957L44.4753 50.0009L1.14394 93.3325C-0.38164 94.8581 -0.38164 97.3315 1.14394 98.8569C1.90664 99.6196 2.90644 100.001 3.90624 100.001C4.90605 100.001 5.90565 99.6196 6.66854 98.8569L49.9997 55.5255L93.3311 98.8569C94.0938 99.6196 95.0936 100.001 96.0934 100.001C97.0932 100.001 98.0928 99.6196 98.8557 98.8569C100.381 97.3313 100.381 94.8579 98.8557 93.3325L55.5243 50.0011Z" fill="#4C7A80"/>
</g>
<defs>
<clipPath id="clip0">
<rect width="100" height="100" fill="white"/>
</clipPath>
</defs>
</svg>
