<svg width="150" height="150" viewBox="0 0 150 150" fill="none" xmlns="http://www.w3.org/2000/svg">
<path d="M119.532 9.375H30.4688C23.9967 9.375 18.75 14.6217 18.75 21.0938V128.907C18.75 135.379 23.9967 140.626 30.4688 140.626H119.532C126.004 140.626 131.251 135.379 131.251 128.907V21.0938C131.251 14.6217 126.004 9.375 119.532 9.375Z" fill="#F4F4F4"/>
<path opacity="0.1" fill-rule="evenodd" clip-rule="evenodd" d="M131.251 107.813L98.438 140.626H119.532C126.024 140.626 131.251 135.4 131.251 128.907V107.813Z" fill="url(#paint0_linear)"/>
<path d="M42.1875 49.2188H107.813V53.9063H42.1875V49.2188Z" fill="#B3B3B3"/>
<path d="M42.1875 58.5947H107.813V63.2823H42.1875V58.5947Z" fill="#B3B3B3"/>
<path d="M42.1875 67.9697H107.813V72.6573H42.1875V67.9697Z" fill="#B3B3B3"/>
<path d="M42.1875 77.3438H107.813V82.0313H42.1875V77.3438Z" fill="#B3B3B3"/>
<path d="M42.1875 86.7188H107.813V91.4063H42.1875V86.7188Z" fill="#B3B3B3"/>
<path d="M42.1875 96.0972H77.344V100.785H42.1875V96.0972Z" fill="#B3B3B3"/>
<circle cx="122.5" cy="122.5" r="27.5" fill="#76A9FF"/>
<path d="M119.583 140V116.667L109.375 126.875L105 122.5L122.5 105L140 122.5L135.625 126.875L125.417 116.667V140H119.583Z" fill="white"/>
<defs>
<linearGradient id="paint0_linear" x1="110.15" y1="119.524" x2="121.869" y2="131.244" gradientUnits="userSpaceOnUse">
<stop/>
<stop offset="1" stop-opacity="0"/>
</linearGradient>
</defs>
</svg>
