<svg width="150" height="150" viewBox="0 0 150 150" fill="none" xmlns="http://www.w3.org/2000/svg">
<path d="M30.473 21.0651C27.8687 21.0651 26.974 23.448 25.7781 25.76H18.7533C18.1376 25.7577 17.5275 25.8769 16.958 26.1109C16.3885 26.3449 15.8707 26.6891 15.4345 27.1236C14.9983 27.5582 14.6522 28.0746 14.4161 28.6432C14.1799 29.2118 14.0583 29.8217 14.0583 30.4374V77.3162C14.0583 79.9118 16.1578 82.0112 18.7533 82.0112H131.256C133.851 82.0112 135.942 79.9118 135.942 77.3162V30.4374C135.943 29.821 135.822 29.2101 135.587 28.6405C135.351 28.0708 135.005 27.5534 134.569 27.1179C134.132 26.6825 133.614 26.3377 133.044 26.1031C132.474 25.8685 131.863 25.7488 131.247 25.7511H67.9797C66.6066 23.5454 65.8891 21.0562 63.2847 21.0562L30.473 21.0651Z" fill="#003A42"/>
<path opacity="0.5" d="M30.473 21.0651C27.8687 21.0651 26.974 23.448 25.7781 25.76H18.7533C18.1376 25.7577 17.5275 25.8769 16.958 26.1109C16.3885 26.3449 15.8707 26.6891 15.4345 27.1236C14.9983 27.5582 14.6522 28.0746 14.4161 28.6432C14.1799 29.2118 14.0583 29.8217 14.0583 30.4374V77.3162C14.0583 79.9118 16.1578 82.0112 18.7533 82.0112H131.256C133.851 82.0112 135.942 79.9118 135.942 77.3162V30.4374C135.943 29.821 135.822 29.2101 135.587 28.6405C135.351 28.0708 135.005 27.5534 134.569 27.1179C134.132 26.6825 133.614 26.3377 133.044 26.1031C132.474 25.8685 131.863 25.7488 131.247 25.7511H67.9797C66.6066 23.5454 65.8891 21.0562 63.2847 21.0562L30.473 21.0651Z" fill="#004C57"/>
<path d="M126.561 32.7761H23.4395C22.143 32.7761 21.092 33.8273 21.092 35.1237V74.9602C21.092 76.2567 22.143 77.3076 23.4395 77.3076H126.561C127.857 77.3076 128.908 76.2567 128.908 74.9602V35.1237C128.908 33.8273 127.857 32.7761 126.561 32.7761Z" fill="white"/>
<path d="M75.0052 37.4722C72.4097 37.4722 71.6199 39.9139 70.3177 42.155L67.571 46.8608H9.37059C6.7744 46.8608 4.68774 48.9522 4.68774 51.5484V126.554C4.68774 129.15 6.77456 131.236 9.37059 131.236H140.631C143.227 131.236 145.314 129.159 145.314 126.563V42.1871C145.314 39.5827 143.226 37.4722 140.631 37.4722H75.0052Z" fill="#003A42"/>
<path opacity="0.25" d="M58.5896 23.3862H35.159C33.8626 23.3862 32.8115 24.4352 32.8115 25.7293C32.8115 27.0233 33.8626 28.0725 35.159 28.0725H58.5896C59.8861 28.0725 60.9371 27.0233 60.9371 25.7293C60.9371 24.4352 59.8861 23.3862 58.5896 23.3862Z" fill="#4C7A80"/>
<path opacity="0.1" d="M145.314 103.121L117.194 131.246H140.631C143.227 131.246 145.314 129.159 145.314 126.563V103.121Z" fill="url(#paint0_linear)"/>
<path d="M115 140C101.193 140 90 128.807 90 115C90 101.193 101.193 90 115 90C128.807 90 140 101.193 140 115C140 128.807 128.807 140 115 140Z" fill="#2B2B31"/>
<path d="M112.208 98.9998V105.264H118.472C125.989 105.264 131 110.592 131 118.418C131 126.561 120.978 130.32 120.978 130.32C120.978 130.32 125.676 123.674 124.579 120.297C123.663 117.475 120.639 115.286 117.219 115.286H112.208V121.55L96.0002 110.275L112.208 98.9998Z" fill="white"/>
<defs>
<linearGradient id="paint0_linear" x1="128.89" y1="117.182" x2="140.666" y2="126.578" gradientUnits="userSpaceOnUse">
<stop/>
<stop offset="1" stop-opacity="0"/>
</linearGradient>
</defs>
</svg>
