<svg width="478" height="478" viewBox="0 0 478 478" fill="none" xmlns="http://www.w3.org/2000/svg">
<g clip-path="url(#clip0)">
<path d="M238.933 0C106.974 0 0 106.974 0 238.933C0 370.892 106.974 477.866 238.933 477.866C370.892 477.866 477.866 370.892 477.866 238.933C477.726 107.033 370.834 0.141 238.933 0ZM106.224 82.738C143.283 51.287 190.328 34.057 238.933 34.134C287.339 34.119 334.17 51.331 371.046 82.689L82.62 371.115C9.505 284.963 20.073 155.853 106.224 82.738ZM371.643 395.129C334.584 426.58 287.539 443.81 238.934 443.733C190.528 443.748 143.697 426.536 106.821 395.178L395.248 106.751C468.362 192.903 457.794 322.014 371.643 395.129Z" fill="#E22323"/>
</g>
<defs>
<clipPath id="clip0">
<rect width="477.867" height="477.867" fill="white"/>
</clipPath>
</defs>
</svg>
