<svg width="150" height="150" viewBox="0 0 150 150" fill="none" xmlns="http://www.w3.org/2000/svg">
<path d="M22.1892 18.4259C21.1475 18.4259 20.7896 19.3791 20.3112 20.3039H17.5013C17.255 20.303 17.011 20.3506 16.7832 20.4442C16.5554 20.5378 16.3483 20.6755 16.1738 20.8493C15.9993 21.0232 15.8609 21.2297 15.7664 21.4572C15.6719 21.6846 15.6233 21.9286 15.6233 22.1748V40.9264C15.6233 41.9646 16.4631 42.8044 17.5013 42.8044H62.5024C63.5404 42.8044 64.3768 41.9646 64.3768 40.9264V22.1748C64.3772 21.9283 64.3288 21.6839 64.2348 21.4561C64.1404 21.2282 64.002 21.0212 63.8276 20.847C63.6528 20.6729 63.4456 20.535 63.2176 20.4411C62.9896 20.3473 62.7452 20.2994 62.4988 20.3003H37.1919C36.6426 19.418 36.3556 18.4224 35.3139 18.4224L22.1892 18.4259Z" fill="#003A42"/>
<path opacity="0.5" d="M22.1892 18.4259C21.1475 18.4259 20.7896 19.3791 20.3112 20.3039H17.5013C17.255 20.303 17.011 20.3506 16.7832 20.4442C16.5554 20.5378 16.3483 20.6755 16.1738 20.8493C15.9993 21.0232 15.8609 21.2297 15.7664 21.4572C15.6719 21.6846 15.6233 21.9286 15.6233 22.1748V40.9264C15.6233 41.9646 16.4631 42.8044 17.5013 42.8044H62.5024C63.5404 42.8044 64.3768 41.9646 64.3768 40.9264V22.1748C64.3772 21.9283 64.3288 21.6839 64.2348 21.4561C64.1404 21.2282 64.002 21.0212 63.8276 20.847C63.6528 20.6729 63.4456 20.535 63.2176 20.4411C62.9896 20.3473 62.7452 20.2994 62.4988 20.3003H37.1919C36.6426 19.418 36.3556 18.4224 35.3139 18.4224L22.1892 18.4259Z" fill="#004C57"/>
<path d="M60.6244 23.1108H19.3758C18.8572 23.1108 18.4368 23.5313 18.4368 24.0499V39.9845C18.4368 40.5031 18.8572 40.9234 19.3758 40.9234H60.6244C61.1428 40.9234 61.5632 40.5031 61.5632 39.9845V24.0499C61.5632 23.5313 61.1428 23.1108 60.6244 23.1108Z" fill="white"/>
<path d="M40.002 24.9888C38.9638 24.9888 38.6479 25.9654 38.127 26.8619L37.0283 28.7442H13.7481C12.7097 28.7442 11.875 29.5808 11.875 30.6193V60.6215C11.875 61.6599 12.7097 62.4943 13.7481 62.4943H66.2523C67.2907 62.4943 68.1255 61.6635 68.1255 60.6251V26.8747C68.1255 25.833 67.2903 24.9888 66.2523 24.9888H40.002Z" fill="#003A42"/>
<path opacity="0.25" d="M33.436 19.3545H24.0638C23.5452 19.3545 23.1248 19.7741 23.1248 20.2917C23.1248 20.8093 23.5452 21.229 24.0638 21.229H33.436C33.9546 21.229 34.375 20.8093 34.375 20.2917C34.375 19.7741 33.9546 19.3545 33.436 19.3545Z" fill="#4C7A80"/>
<path opacity="0.1" d="M68.1254 51.248L56.8774 62.498H66.2522C67.2906 62.498 68.1254 61.6632 68.1254 60.6248V51.248Z" fill="url(#paint0_linear)"/>
<path d="M92.1892 18.4259C91.1475 18.4259 90.7896 19.3791 90.3112 20.3039H87.5013C87.255 20.303 87.011 20.3506 86.7832 20.4442C86.5554 20.5378 86.3483 20.6755 86.1738 20.8493C85.9993 21.0232 85.8609 21.2297 85.7664 21.4572C85.6719 21.6846 85.6233 21.9286 85.6233 22.1748V40.9264C85.6233 41.9646 86.4631 42.8044 87.5013 42.8044H132.502C133.54 42.8044 134.377 41.9646 134.377 40.9264V22.1748C134.377 21.9283 134.329 21.6839 134.235 21.4561C134.14 21.2282 134.002 21.0212 133.828 20.847C133.653 20.6729 133.446 20.535 133.218 20.4411C132.99 20.3473 132.745 20.2994 132.499 20.3003H107.192C106.643 19.418 106.356 18.4224 105.314 18.4224L92.1892 18.4259Z" fill="#003A42"/>
<path opacity="0.5" d="M92.1892 18.4259C91.1475 18.4259 90.7896 19.3791 90.3112 20.3039H87.5013C87.255 20.303 87.011 20.3506 86.7832 20.4442C86.5554 20.5378 86.3483 20.6755 86.1738 20.8493C85.9993 21.0232 85.8609 21.2297 85.7664 21.4572C85.6719 21.6846 85.6233 21.9286 85.6233 22.1748V40.9264C85.6233 41.9646 86.4631 42.8044 87.5013 42.8044H132.502C133.54 42.8044 134.377 41.9646 134.377 40.9264V22.1748C134.377 21.9283 134.329 21.6839 134.235 21.4561C134.14 21.2282 134.002 21.0212 133.828 20.847C133.653 20.6729 133.446 20.535 133.218 20.4411C132.99 20.3473 132.745 20.2994 132.499 20.3003H107.192C106.643 19.418 106.356 18.4224 105.314 18.4224L92.1892 18.4259Z" fill="#004C57"/>
<path d="M130.624 23.1108H89.3758C88.8572 23.1108 88.4368 23.5313 88.4368 24.0499V39.9845C88.4368 40.5031 88.8572 40.9234 89.3758 40.9234H130.624C131.143 40.9234 131.563 40.5031 131.563 39.9845V24.0499C131.563 23.5313 131.143 23.1108 130.624 23.1108Z" fill="white"/>
<path d="M110.002 24.9888C108.964 24.9888 108.648 25.9654 108.127 26.8619L107.028 28.7442H83.7481C82.7097 28.7442 81.875 29.5808 81.875 30.6193V60.6215C81.875 61.6599 82.7097 62.4943 83.7481 62.4943H136.252C137.291 62.4943 138.126 61.6635 138.126 60.6251V26.8747C138.126 25.833 137.29 24.9888 136.252 24.9888H110.002Z" fill="#003A42"/>
<path opacity="0.25" d="M103.436 19.3545H94.0638C93.5452 19.3545 93.1248 19.7741 93.1248 20.2917C93.1248 20.8093 93.5452 21.229 94.0638 21.229H103.436C103.955 21.229 104.375 20.8093 104.375 20.2917C104.375 19.7741 103.955 19.3545 103.436 19.3545Z" fill="#4C7A80"/>
<path opacity="0.1" d="M138.125 51.248L126.877 62.498H136.252C137.291 62.498 138.125 61.6632 138.125 60.6248V51.248Z" fill="url(#paint1_linear)"/>
<path d="M22.1892 88.4259C21.1475 88.4259 20.7896 89.3791 20.3112 90.3039H17.5013C17.255 90.303 17.011 90.3506 16.7832 90.4442C16.5554 90.5378 16.3483 90.6755 16.1738 90.8493C15.9993 91.0232 15.8609 91.2297 15.7664 91.4572C15.6719 91.6846 15.6233 91.9286 15.6233 92.1748V110.926C15.6233 111.965 16.4631 112.804 17.5013 112.804H62.5024C63.5404 112.804 64.3768 111.965 64.3768 110.926V92.1748C64.3772 91.9283 64.3288 91.6839 64.2348 91.4561C64.1404 91.2282 64.002 91.0212 63.8276 90.847C63.6528 90.6729 63.4456 90.535 63.2176 90.4411C62.9896 90.3473 62.7452 90.2994 62.4988 90.3003H37.1919C36.6426 89.418 36.3556 88.4224 35.3139 88.4224L22.1892 88.4259Z" fill="#003A42"/>
<path opacity="0.5" d="M22.1892 88.4259C21.1475 88.4259 20.7896 89.3791 20.3112 90.3039H17.5013C17.255 90.303 17.011 90.3506 16.7832 90.4442C16.5554 90.5378 16.3483 90.6755 16.1738 90.8493C15.9993 91.0232 15.8609 91.2297 15.7664 91.4572C15.6719 91.6846 15.6233 91.9286 15.6233 92.1748V110.926C15.6233 111.965 16.4631 112.804 17.5013 112.804H62.5024C63.5404 112.804 64.3768 111.965 64.3768 110.926V92.1748C64.3772 91.9283 64.3288 91.6839 64.2348 91.4561C64.1404 91.2282 64.002 91.0212 63.8276 90.847C63.6528 90.6729 63.4456 90.535 63.2176 90.4411C62.9896 90.3473 62.7452 90.2994 62.4988 90.3003H37.1919C36.6426 89.418 36.3556 88.4224 35.3139 88.4224L22.1892 88.4259Z" fill="#004C57"/>
<path d="M60.6244 93.1108H19.3758C18.8572 93.1108 18.4368 93.5313 18.4368 94.0499V109.984C18.4368 110.503 18.8572 110.923 19.3758 110.923H60.6244C61.1428 110.923 61.5632 110.503 61.5632 109.984V94.0499C61.5632 93.5313 61.1428 93.1108 60.6244 93.1108Z" fill="white"/>
<path d="M40.002 94.9888C38.9638 94.9888 38.6479 95.9654 38.127 96.8619L37.0283 98.7442H13.7481C12.7097 98.7442 11.875 99.5808 11.875 100.619V130.621C11.875 131.66 12.7097 132.494 13.7481 132.494H66.2523C67.2907 132.494 68.1255 131.663 68.1255 130.625V96.8747C68.1255 95.833 67.2903 94.9888 66.2523 94.9888H40.002Z" fill="#003A42"/>
<path opacity="0.25" d="M33.436 89.3545H24.0638C23.5452 89.3545 23.1248 89.7741 23.1248 90.2917C23.1248 90.8093 23.5452 91.229 24.0638 91.229H33.436C33.9546 91.229 34.375 90.8093 34.375 90.2917C34.375 89.7741 33.9546 89.3545 33.436 89.3545Z" fill="#4C7A80"/>
<path opacity="0.1" d="M68.1254 121.248L56.8774 132.498H66.2522C67.2906 132.498 68.1254 131.663 68.1254 130.625V121.248Z" fill="url(#paint2_linear)"/>
<path d="M92.1892 88.4259C91.1475 88.4259 90.7896 89.3791 90.3112 90.3039H87.5013C87.255 90.303 87.011 90.3506 86.7832 90.4442C86.5554 90.5378 86.3483 90.6755 86.1738 90.8493C85.9993 91.0232 85.8609 91.2297 85.7664 91.4572C85.6719 91.6846 85.6233 91.9286 85.6233 92.1748V110.926C85.6233 111.965 86.4631 112.804 87.5013 112.804H132.502C133.54 112.804 134.377 111.965 134.377 110.926V92.1748C134.377 91.9283 134.329 91.6839 134.235 91.4561C134.14 91.2282 134.002 91.0212 133.828 90.847C133.653 90.6729 133.446 90.535 133.218 90.4411C132.99 90.3473 132.745 90.2994 132.499 90.3003H107.192C106.643 89.418 106.356 88.4224 105.314 88.4224L92.1892 88.4259Z" fill="#003A42"/>
<path opacity="0.5" d="M92.1892 88.4259C91.1475 88.4259 90.7896 89.3791 90.3112 90.3039H87.5013C87.255 90.303 87.011 90.3506 86.7832 90.4442C86.5554 90.5378 86.3483 90.6755 86.1738 90.8493C85.9993 91.0232 85.8609 91.2297 85.7664 91.4572C85.6719 91.6846 85.6233 91.9286 85.6233 92.1748V110.926C85.6233 111.965 86.4631 112.804 87.5013 112.804H132.502C133.54 112.804 134.377 111.965 134.377 110.926V92.1748C134.377 91.9283 134.329 91.6839 134.235 91.4561C134.14 91.2282 134.002 91.0212 133.828 90.847C133.653 90.6729 133.446 90.535 133.218 90.4411C132.99 90.3473 132.745 90.2994 132.499 90.3003H107.192C106.643 89.418 106.356 88.4224 105.314 88.4224L92.1892 88.4259Z" fill="#004C57"/>
<path d="M130.624 93.1108H89.3758C88.8572 93.1108 88.4368 93.5313 88.4368 94.0499V109.984C88.4368 110.503 88.8572 110.923 89.3758 110.923H130.624C131.143 110.923 131.563 110.503 131.563 109.984V94.0499C131.563 93.5313 131.143 93.1108 130.624 93.1108Z" fill="white"/>
<path d="M110.002 94.9888C108.964 94.9888 108.648 95.9654 108.127 96.8619L107.028 98.7442H83.7481C82.7097 98.7442 81.875 99.5808 81.875 100.619V130.621C81.875 131.66 82.7097 132.494 83.7481 132.494H136.252C137.291 132.494 138.126 131.663 138.126 130.625V96.8747C138.126 95.833 137.29 94.9888 136.252 94.9888H110.002Z" fill="#003A42"/>
<path opacity="0.25" d="M103.436 89.3545H94.0638C93.5452 89.3545 93.1248 89.7741 93.1248 90.2917C93.1248 90.8093 93.5452 91.229 94.0638 91.229H103.436C103.955 91.229 104.375 90.8093 104.375 90.2917C104.375 89.7741 103.955 89.3545 103.436 89.3545Z" fill="#4C7A80"/>
<path opacity="0.1" d="M138.125 121.248L126.877 132.498H136.252C137.291 132.498 138.125 131.663 138.125 130.625V121.248Z" fill="url(#paint3_linear)"/>
<defs>
<linearGradient id="paint0_linear" x1="61.5558" y1="56.8724" x2="66.2662" y2="60.6308" gradientUnits="userSpaceOnUse">
<stop/>
<stop offset="1" stop-opacity="0"/>
</linearGradient>
<linearGradient id="paint1_linear" x1="131.556" y1="56.8724" x2="136.266" y2="60.6308" gradientUnits="userSpaceOnUse">
<stop/>
<stop offset="1" stop-opacity="0"/>
</linearGradient>
<linearGradient id="paint2_linear" x1="61.5558" y1="126.872" x2="66.2662" y2="130.631" gradientUnits="userSpaceOnUse">
<stop/>
<stop offset="1" stop-opacity="0"/>
</linearGradient>
<linearGradient id="paint3_linear" x1="131.556" y1="126.872" x2="136.266" y2="130.631" gradientUnits="userSpaceOnUse">
<stop/>
<stop offset="1" stop-opacity="0"/>
</linearGradient>
</defs>
</svg>
